<svg width="131" height="127" viewBox="0 0 131 127" fill="none" xmlns="http://www.w3.org/2000/svg">
<path opacity="0.15" d="M36.3525 119.828C36.3525 120.873 38.9749 121.875 43.6427 122.613C48.3104 123.352 54.6413 123.767 61.2425 123.767C67.8438 123.767 74.1746 123.352 78.8424 122.613C83.5102 121.875 86.1325 120.873 86.1325 119.828C86.1325 118.784 83.5102 117.782 78.8424 117.043C74.1746 116.305 67.8438 115.89 61.2425 115.89C54.6413 115.89 48.3104 116.305 43.6427 117.043C38.9749 117.782 36.3525 118.784 36.3525 119.828Z" fill="#45413C"/>
<path d="M66.2918 55.4979C66.2918 55.4979 56.2484 47.6207 50.7901 54.9465C45.3318 62.2722 48.5249 64.4516 43.8853 68.889C39.2457 73.3265 30.8126 72.1449 22.6524 83.0679C14.4922 93.9909 22.6524 105.203 32.6684 112.135C42.1659 118.725 57.2309 121.719 65.4184 111.006C73.6059 100.293 67.0286 92.3367 71.5318 86.3238C76.0349 80.3109 78.7914 81.3612 80.5653 78.9981C81.5239 76.9219 81.8093 74.6159 81.3841 72.3813C81.3654 72.1937 81.289 72.0158 81.1646 71.8704C81.0401 71.725 80.8733 71.6186 80.6856 71.565C80.4979 71.5114 80.2978 71.5129 80.1111 71.5695C79.9243 71.626 79.7594 71.735 79.6374 71.8824C78.1364 73.6679 75.7074 75.7684 73.5786 74.1405C71.4499 72.5125 70.8495 68.3902 73.9607 64.189L75.6528 61.9571L66.2918 55.4979Z" fill="#FFAA54"/>
<path d="M24.1262 91.7328C32.3137 80.8098 40.856 81.8338 45.3591 77.5539C49.8622 73.274 46.8056 70.9109 52.2639 63.6376C57.7222 56.3644 67.7656 64.189 67.7656 64.189L72.1868 67.2348C72.6028 66.12 73.1818 65.0679 73.9062 64.1102L75.5983 61.8784L66.2918 55.4979C66.2918 55.4979 56.2485 47.6207 50.7902 54.9465C45.3318 62.2722 48.525 64.4516 43.8854 68.889C39.2458 73.3265 30.8127 72.1449 22.6525 83.0679C20.8594 85.3428 19.757 88.0515 19.4679 90.893C19.1789 93.7344 19.7144 96.5974 21.015 99.1636C21.3692 96.4701 22.4409 93.9104 24.1262 91.7328Z" fill="#FFCC99"/>
<path d="M66.2918 55.4979C66.2918 55.4979 56.2484 47.6207 50.7901 54.9465C45.3318 62.2722 48.5249 64.4516 43.8853 68.889C39.2457 73.3265 30.8126 72.1449 22.6524 83.0679C14.4922 93.9909 22.6524 105.203 32.6684 112.135C42.1659 118.725 57.2309 121.719 65.4184 111.006C73.6059 100.293 67.0286 92.3367 71.5318 86.3238C76.0349 80.3109 78.7914 81.3612 80.5653 78.9981C81.5239 76.9219 81.8093 74.6159 81.3841 72.3813C81.3654 72.1937 81.289 72.0158 81.1646 71.8704C81.0401 71.725 80.8733 71.6186 80.6856 71.565C80.4979 71.5114 80.2978 71.5129 80.1111 71.5695C79.9243 71.626 79.7594 71.735 79.6374 71.8824C78.1364 73.6679 75.7074 75.7684 73.5786 74.1405C71.4499 72.5125 70.8495 68.3902 73.9607 64.189L75.6528 61.9571L66.2918 55.4979Z" stroke="#45413C" stroke-width="0.5" stroke-linecap="round" stroke-linejoin="round"/>
<path d="M89.2714 27.1401L41.1289 89.0021L51.5816 96.2491L97.4043 32.7854L89.2714 27.1401Z" fill="#F0D5A8"/>
<path d="M93.3379 29.9759L89.2714 27.1401L41.1289 89.0021L46.3416 92.6256L93.3379 29.9759Z" fill="#F7E5C6"/>
<path d="M89.2714 27.1401L41.1289 89.0021L51.5816 96.2491L97.4043 32.7854L89.2714 27.1401Z" stroke="#45413C" stroke-width="0.5" stroke-linecap="round" stroke-linejoin="round"/>
<path d="M117.627 12.0948C118.074 13.0927 118.172 14.2032 117.906 15.2591C117.64 16.3151 117.025 17.2595 116.154 17.9502L97.4043 32.7855L89.2168 27.1402L91.1545 18.239C91.4417 16.9255 92.105 15.7154 93.0696 14.7456C94.0342 13.7759 95.2615 13.085 96.6128 12.7513L111.46 9.20653C112.677 8.8885 113.973 9.00592 115.107 9.53703C116.241 10.0681 117.137 10.9769 117.627 12.0948Z" fill="#FFAA54"/>
<path d="M117.627 12.095C117.138 10.9994 116.26 10.1068 115.15 9.57755C114.04 9.04826 112.77 8.9168 111.568 9.20675L96.7212 12.7515C95.3699 13.0852 94.1426 13.7761 93.178 14.7459C92.2134 15.7156 91.55 16.9257 91.2629 18.2392L89.3252 27.1404L91.3721 28.5583L92.3 24.3309C92.5842 23.0161 93.2465 21.8045 94.2116 20.8343C95.1766 19.864 96.4055 19.1741 97.7583 18.8431L112.605 15.2984C113.437 15.11 114.304 15.1191 115.131 15.325C115.958 15.5308 116.721 15.9272 117.354 16.48C117.74 15.8163 117.965 15.077 118.013 14.3176C118.06 13.5582 117.928 12.7984 117.627 12.095Z" fill="#FFCC99"/>
<path d="M117.627 12.095C117.138 10.9994 116.26 10.1068 115.15 9.57755C114.04 9.04826 112.77 8.9168 111.568 9.20675L96.7212 12.7515C95.3699 13.0852 94.1426 13.7761 93.178 14.7459C92.2134 15.7156 91.55 16.9257 91.2629 18.2392L89.3252 27.1404L97.5127 32.7857L116.153 17.9504C117.025 17.2597 117.64 16.3153 117.905 15.2594C118.171 14.2034 118.073 13.0929 117.627 12.095Z" stroke="#45413C" stroke-width="0.5" stroke-linecap="round" stroke-linejoin="round"/>
<path d="M41.1221 88.9971L51.5907 96.2638L47.3911 101.864L36.9224 94.5973L41.1221 88.9971Z" fill="white" stroke="#45413C" stroke-width="0.5" stroke-linecap="round" stroke-linejoin="round"/>
<path d="M48.5518 102.761L36.9255 94.7002C36.6209 94.4881 36.2758 94.3359 35.91 94.2521C35.5442 94.1683 35.1649 94.1547 34.7936 94.212C34.4223 94.2693 34.0664 94.3964 33.7462 94.586C33.426 94.7757 33.1477 95.0241 32.9273 95.3172C32.7069 95.6103 32.5486 95.9423 32.4616 96.2942C32.3745 96.6462 32.3604 97.0112 32.4199 97.3684C32.4795 97.7255 32.6116 98.068 32.8087 98.376C33.0058 98.6841 33.264 98.9518 33.5687 99.1639L45.1949 107.251C45.5014 107.463 45.8482 107.615 46.2156 107.698C46.5831 107.781 46.964 107.794 47.3365 107.735C47.709 107.677 48.066 107.548 48.3869 107.357C48.7078 107.166 48.9864 106.916 49.2068 106.621C49.4272 106.326 49.5851 105.992 49.6715 105.639C49.7579 105.285 49.771 104.919 49.7102 104.561C49.6494 104.202 49.5158 103.859 49.317 103.55C49.1182 103.241 48.8582 102.973 48.5518 102.761Z" fill="white" stroke="#45413C" stroke-width="0.5" stroke-linecap="round" stroke-linejoin="round"/>
<path d="M99.4239 21.8628L42.166 98.2187" stroke="#45413C" stroke-width="0.5" stroke-linecap="round" stroke-linejoin="round"/>
<path d="M67.2198 73.0642L59.0323 67.4189C58.4135 66.9906 57.6431 66.8164 56.8907 66.9346C56.1384 67.0528 55.4656 67.4537 55.0204 68.0491C54.5753 68.6445 54.3942 69.3856 54.5171 70.1095C54.6399 70.8333 55.0566 71.4806 55.6754 71.9089L63.8629 77.5542C64.4818 77.9824 65.2522 78.1567 66.0045 78.0385C66.7569 77.9203 67.4297 77.5194 67.8748 76.924C68.32 76.3286 68.501 75.5874 68.3782 74.8636C68.2554 74.1397 67.8387 73.4925 67.2198 73.0642Z" fill="white" stroke="#45413C" stroke-width="0.5" stroke-linecap="round" stroke-linejoin="round"/>
<path d="M98.3047 19.7881L104.254 30.7373" stroke="#45413C" stroke-width="0.5" stroke-linecap="round" stroke-linejoin="round"/>
<path d="M106.001 16.6372L111.214 26.1948" stroke="#45413C" stroke-width="0.5" stroke-linecap="round" stroke-linejoin="round"/>
<path d="M106 63.0077C105.924 63.8377 105.527 64.6099 104.888 65.1724C104.249 65.7348 103.414 66.0468 102.548 66.0468C101.682 66.0468 100.847 65.7348 100.208 65.1724C99.5694 64.6099 99.1725 63.8377 99.0957 63.0077C99.053 62.5467 99.1106 62.0822 99.2647 61.6438C99.4188 61.2053 99.6661 60.8026 99.9909 60.4611C100.316 60.1196 100.711 59.8469 101.151 59.6604C101.591 59.4738 102.067 59.3774 102.548 59.3774C103.029 59.3774 103.505 59.4738 103.945 59.6604C104.385 59.8469 104.781 60.1196 105.105 60.4611C105.43 60.8026 105.677 61.2053 105.831 61.6438C105.986 62.0822 106.043 62.5467 106 63.0077Z" stroke="#48CF3E" stroke-width="0.5" stroke-linecap="round" stroke-linejoin="round"/>
<path d="M123.304 59.673C123.304 60.3326 123.101 60.9773 122.72 61.5257C122.339 62.0741 121.798 62.5015 121.165 62.7539C120.531 63.0063 119.834 63.0723 119.162 62.9436C118.49 62.815 117.872 62.4974 117.387 62.031C116.903 61.5646 116.572 60.9705 116.439 60.3236C116.305 59.6767 116.374 59.0063 116.636 58.3969C116.898 57.7876 117.342 57.2668 117.912 56.9004C118.482 56.534 119.153 56.3384 119.838 56.3384C120.757 56.3384 121.639 56.6897 122.289 57.3151C122.939 57.9405 123.304 58.7886 123.304 59.673Z" stroke="#48CF3E" stroke-width="0.5" stroke-linecap="round" stroke-linejoin="round"/>
<path d="M106.001 63.0075V48.0409L123.304 41.3716V59.6729" stroke="#48CF3E" stroke-width="0.5" stroke-linecap="round" stroke-linejoin="round"/>
<path d="M99.9424 116.887C99.9473 117.767 99.6783 118.629 99.1702 119.361C98.6621 120.093 97.938 120.662 97.0911 120.994C96.2442 121.327 95.3132 121.409 94.4177 121.228C93.5223 121.048 92.7035 120.614 92.0665 119.982C91.4295 119.35 91.0035 118.55 90.8433 117.683C90.6831 116.817 90.796 115.924 91.1675 115.119C91.539 114.315 92.1521 113.636 92.9279 113.17C93.7038 112.703 94.6069 112.471 95.5211 112.502C96.7039 112.543 97.8244 113.022 98.6484 113.839C99.4725 114.657 99.9361 115.749 99.9424 116.887Z" stroke="#FF4064" stroke-width="0.5" stroke-linecap="round" stroke-linejoin="round"/>
<path d="M99.9424 116.888V97.1421L106.793 101.527" stroke="#FF4064" stroke-width="0.5" stroke-linecap="round" stroke-linejoin="round"/>
<path d="M27.701 37.8534C27.6956 38.6364 27.4493 39.4004 26.9932 40.0489C26.5371 40.6975 25.8917 41.2016 25.1382 41.4977C24.3847 41.7937 23.557 41.8685 22.7594 41.7126C21.9618 41.5566 21.23 41.177 20.6564 40.6214C20.0828 40.0659 19.693 39.3594 19.5362 38.591C19.3794 37.8227 19.4626 37.0268 19.7753 36.3039C20.088 35.5809 20.6162 34.9632 21.2933 34.5287C21.9704 34.0942 22.766 33.8623 23.5799 33.8623C24.1234 33.8623 24.6615 33.9657 25.1633 34.1666C25.6651 34.3675 26.1206 34.6619 26.5036 35.0328C26.8867 35.4038 27.1897 35.844 27.3952 36.3281C27.6006 36.8121 27.7046 37.3305 27.701 37.8534Z" stroke="#FFB700" stroke-width="0.5" stroke-linecap="round" stroke-linejoin="round"/>
<path d="M27.7012 37.8532V19.9458L33.8964 23.9369" stroke="#FFB700" stroke-width="0.5" stroke-linecap="round" stroke-linejoin="round"/>
<path d="M65.6641 15.2722V13.6968" stroke="#00AED9" stroke-width="0.5" stroke-linecap="round" stroke-linejoin="round"/>
<path d="M69.1299 16.6375L70.2761 15.5347" stroke="#00AED9" stroke-width="0.5" stroke-linecap="round" stroke-linejoin="round"/>
<path d="M70.5488 19.9458H72.159" stroke="#00AED9" stroke-width="0.5" stroke-linecap="round" stroke-linejoin="round"/>
<path d="M69.1299 23.2803L70.2761 24.3831" stroke="#00AED9" stroke-width="0.5" stroke-linecap="round" stroke-linejoin="round"/>
<path d="M65.6641 24.646V26.1952" stroke="#00AED9" stroke-width="0.5" stroke-linecap="round" stroke-linejoin="round"/>
<path d="M62.2254 23.2803L61.0791 24.3831" stroke="#00AED9" stroke-width="0.5" stroke-linecap="round" stroke-linejoin="round"/>
<path d="M60.8055 19.9458H59.168" stroke="#00AED9" stroke-width="0.5" stroke-linecap="round" stroke-linejoin="round"/>
<path d="M62.2254 16.6375L61.0791 15.5347" stroke="#00AED9" stroke-width="0.5" stroke-linecap="round" stroke-linejoin="round"/>
<path d="M12.6084 61.8259V53.4761" stroke="#00AED9" stroke-width="0.5" stroke-linecap="round" stroke-linejoin="round"/>
<path d="M8.26953 57.6514H16.9483" stroke="#00AED9" stroke-width="0.5" stroke-linecap="round" stroke-linejoin="round"/>
<path d="M119.838 85.1424V76.8188" stroke="#00AED9" stroke-width="0.5" stroke-linecap="round" stroke-linejoin="round"/>
<path d="M115.525 80.9673H124.177" stroke="#00AED9" stroke-width="0.5" stroke-linecap="round" stroke-linejoin="round"/>
<path d="M90.7998 91.4968V87.3481" stroke="#00AED9" stroke-width="0.5" stroke-linecap="round" stroke-linejoin="round"/>
<path d="M88.6436 89.4224H92.9829" stroke="#00AED9" stroke-width="0.5" stroke-linecap="round" stroke-linejoin="round"/>
<path d="M56.9033 41.3717V37.1968" stroke="#00AED9" stroke-width="0.5" stroke-linecap="round" stroke-linejoin="round"/>
<path d="M54.7471 39.2974H59.0864" stroke="#00AED9" stroke-width="0.5" stroke-linecap="round" stroke-linejoin="round"/>
<path d="M10.4531 109.089V104.94" stroke="#00AED9" stroke-width="0.5" stroke-linecap="round" stroke-linejoin="round"/>
<path d="M8.26953 107.015H12.6089" stroke="#00AED9" stroke-width="0.5" stroke-linecap="round" stroke-linejoin="round"/>
</svg>
